<region> lovel=1 hivel=9 amp_velcurve_9=1 sample=../samples/snares/sn12bop/brs/snare_on/swl/sn12wbop_brs_swl_002p.wav
<region> lovel=10 hivel=18 amp_velcurve_18=1 sample=../samples/snares/sn12bop/brs/snare_on/swl/sn12wbop_brs_swl_003p.wav
<region> lovel=19 hivel=27 amp_velcurve_27=1 sample=../samples/snares/sn12bop/brs/snare_on/swl/sn12wbop_brs_swl_004p.wav
<region> lovel=28 hivel=37 amp_velcurve_37=1 sample=../samples/snares/sn12bop/brs/snare_on/swl/sn12wbop_brs_swl_005p.wav
<region> lovel=38 hivel=47 amp_velcurve_47=1 sample=../samples/snares/sn12bop/brs/snare_on/swl/sn12wbop_brs_swl_006p.wav
<region> lovel=48 hivel=57 amp_velcurve_57=1 sample=../samples/snares/sn12bop/brs/snare_on/swl/sn12wbop_brs_swl_007p.wav
<region> lovel=58 hivel=67 amp_velcurve_67=1 sample=../samples/snares/sn12bop/brs/snare_on/swl/sn12wbop_brs_swl_008p.wav
<region> lovel=68 hivel=77 amp_velcurve_77=1 sample=../samples/snares/sn12bop/brs/snare_on/swl/sn12wbop_brs_swl_009p.wav
<region> lovel=78 hivel=87 amp_velcurve_87=1 sample=../samples/snares/sn12bop/brs/snare_on/swl/sn12wbop_brs_swl_010p.wav
<region> lovel=88 hivel=97 amp_velcurve_97=1 sample=../samples/snares/sn12bop/brs/snare_on/swl/sn12wbop_brs_swl_011p.wav
<region> lovel=98 hivel=107 amp_velcurve_107=1 sample=../samples/snares/sn12bop/brs/snare_on/swl/sn12wbop_brs_swl_012p.wav
<region> lovel=108 hivel=117 amp_velcurve_117=1 sample=../samples/snares/sn12bop/brs/snare_on/swl/sn12wbop_brs_swl_013p.wav
<region> lovel=118 hivel=127 amp_velcurve_127=1 sample=../samples/snares/sn12bop/brs/snare_on/swl/sn12wbop_brs_swl_014p.wav
